<svg width="20" height="7" viewBox="0 0 20 7" fill="none" xmlns="http://www.w3.org/2000/svg">
    <path d="M1 1.49999C1.83333 1.33332 4.1 1.69999 6.5 4.49999C9.5 7.99999 12 5.99999 13.5 4.49999C15 2.99999 15.5 1.49999 19.5 1.49999H1Z" stroke="#C5D0DB" stroke-linecap="round" stroke-linejoin="round"/>
    <path d="M1 1.0338C1.20217 0.993368 1.48871 0.984324 1.84104 1.0338H19.5C15.5 1.0338 15 2.5338 13.5 4.0338C12 5.5338 9.5 7.5338 6.5 4.0338C4.68226 1.9131 2.941 1.18827 1.84104 1.0338H1Z" fill="#EDEEF0"/>
    <path d="M1 1.49999C1.83333 1.33332 4.1 1.69999 6.5 4.49999C9.5 7.99999 12 5.99999 13.5 4.49999C15 2.99999 15.5 1.49999 19.5 1.49999H1Z" stroke="#C5D0DB" stroke-linecap="round" stroke-linejoin="round"/>
</svg>

